<?xml version="1.0" encoding="utf-8"?>
<!-- Generator: Adobe Illustrator 25.3.1, SVG Export Plug-In . SVG Version: 6.00 Build 0)  -->
<svg version="1.1" id="Layer_1" xmlns="http://www.w3.org/2000/svg" xmlns:xlink="http://www.w3.org/1999/xlink" x="0px" y="0px"
	 viewBox="0 0 2048 2048" style="enable-background:new 0 0 2048 2048;" xml:space="preserve">
<style type="text/css">
	.st0{fill:#CCEDFF;}
	.st1{fill:#FFFFFF;}
	.st2{fill:#403E55;}
	.st3{fill:#317BC8;}
	.st4{fill:#FFB8BA;}
	.st5{fill:#E3F4FC;}
	.st6{fill:#98D6FF;}
</style>
<g>
	<g>
		<path class="st0" d="M347.57,1184.99c66.43,52.84,134.38,86.82,189.15,153.42c54.6,66.39,111.24,130.22,169.66,193.4
			c77.42,83.73,174.14,127.65,286.26,142.81c180.92,24.46,326.94-64.97,422.45-210.04c37.36-56.75,65.01-110.85,79.81-177.55
			c18.09-81.51,61.23-110.71,125.71-160.88c63.71-49.58,123.43-104.39,156.44-178.94c48.45-109.41,73.46-221.31,22.51-337.96
			c-30.94-70.83-82.72-134.1-152.64-170.27c-60.42-31.26-122.59-45.39-188.92-39.66c-0.01,0-0.02,0-0.03,0
			c-33.13,2.88-64.53,9.47-97.96,9.73c-153.66,1.22-269.84-102.36-421.73-107.47c-153.65-5.17-308.29,65.36-389.93,193.18
			c-30.49,47.75-57.96,97.76-93.35,142.21c-31.98,40.18-72.57,69.18-110.32,102.99c-39.57,35.44-83.92,67.14-105,117.05
			C187.58,980.42,246.76,1104.8,347.57,1184.99z"/>
	</g>
	<g>
		<g>
			<path class="st2" d="M795.27,1478.05v-68.27H668.42v-43.6l108.35-174.42h81.92v167.81h34.35v50.21h-34.35v68.27H795.27z
				 M795.27,1359.57v-63.42c0-17.18,0.88-34.8,2.2-53.29h-1.76c-9.25,18.5-16.74,35.24-26.43,53.29l-38.32,62.54v0.88H795.27z"/>
		</g>
		<g>
			<path class="st2" d="M1132.64,1333.59c0,88.53-35.68,149.31-108.79,149.31c-73.99,0-106.59-66.51-107.03-147.55
				c0-82.8,35.23-148.43,109.23-148.43C1102.69,1186.92,1132.64,1255.19,1132.64,1333.59z M984.21,1335.35
				c-0.44,65.63,15.42,96.9,41.4,96.9s40.08-32.59,40.08-97.78c0-63.42-13.65-96.9-40.52-96.9
				C1000.51,1237.57,983.77,1268.84,984.21,1335.35z"/>
		</g>
		<g>
			<path class="st2" d="M1284.15,1478.05v-68.27H1157.3v-43.6l108.35-174.42h81.92v167.81h34.35v50.21h-34.35v68.27H1284.15z
				 M1284.15,1359.57v-63.42c0-17.18,0.88-34.8,2.2-53.29h-1.76c-9.25,18.5-16.74,35.24-26.43,53.29l-38.32,62.54v0.88H1284.15z"/>
		</g>
	</g>
	<g>
		<g>
			<path class="st2" d="M573.59,1568.38c5.64-0.94,13.02-1.74,22.41-1.74c11.54,0,20,2.68,25.36,7.51
				c4.97,4.29,7.92,10.87,7.92,18.92c0,8.19-2.42,14.63-6.98,19.33c-6.17,6.58-16.24,9.93-27.65,9.93c-3.49,0-6.71-0.13-9.39-0.81
				v36.23h-11.68V1568.38z M585.27,1612c2.55,0.67,5.77,0.94,9.66,0.94c14.09,0,22.68-6.84,22.68-19.32
				c0-11.94-8.45-17.72-21.34-17.72c-5.1,0-8.99,0.4-11,0.94V1612z"/>
		</g>
		<g>
			<path class="st2" d="M677.07,1657.76l-0.94-8.19h-0.4c-3.62,5.1-10.6,9.66-19.86,9.66c-13.15,0-19.86-9.26-19.86-18.65
				c0-15.7,13.96-24.29,39.05-24.16v-1.34c0-5.37-1.48-15.03-14.76-15.03c-6.04,0-12.35,1.88-16.91,4.83l-2.68-7.78
				c5.37-3.49,13.15-5.77,21.34-5.77c19.86,0,24.69,13.55,24.69,26.57v24.29c0,5.64,0.27,11.14,1.07,15.57H677.07z M675.32,1624.61
				c-12.88-0.27-27.51,2.01-27.51,14.63c0,7.65,5.1,11.27,11.14,11.27c8.45,0,13.82-5.37,15.7-10.87c0.4-1.21,0.67-2.55,0.67-3.76
				V1624.61z"/>
		</g>
		<g>
			<path class="st2" d="M761.75,1592.81c-0.27,4.7-0.54,9.93-0.54,17.85v37.71c0,14.9-2.95,24.02-9.26,29.66
				c-6.31,5.9-15.43,7.78-23.62,7.78c-7.78,0-16.37-1.88-21.61-5.37l2.95-8.99c4.29,2.68,11,5.1,19.06,5.1
				c12.08,0,20.94-6.31,20.94-22.68v-7.25h-0.27c-3.62,6.04-10.6,10.87-20.67,10.87c-16.1,0-27.65-13.69-27.65-31.67
				c0-22.01,14.36-34.49,29.26-34.49c11.27,0,17.45,5.91,20.26,11.27h0.27l0.54-9.8H761.75z M749.53,1618.44
				c0-2.01-0.13-3.76-0.67-5.37c-2.15-6.84-7.92-12.48-16.51-12.48c-11.27,0-19.33,9.53-19.33,24.56c0,12.75,6.44,23.35,19.19,23.35
				c7.25,0,13.82-4.56,16.37-12.08c0.67-2.01,0.94-4.29,0.94-6.31V1618.44z"/>
		</g>
		<g>
			<path class="st2" d="M787.38,1627.43c0.27,15.97,10.47,22.55,22.28,22.55c8.45,0,13.55-1.48,17.98-3.36l2.01,8.45
				c-4.16,1.88-11.27,4.03-21.61,4.03c-20,0-31.94-13.15-31.94-32.75c0-19.59,11.54-35.03,30.46-35.03
				c21.2,0,26.84,18.65,26.84,30.6c0,2.42-0.27,4.29-0.4,5.5H787.38z M822,1618.98c0.13-7.52-3.09-19.19-16.37-19.19
				c-11.94,0-17.18,11.01-18.12,19.19H822z"/>
		</g>
		<g>
			<path class="st2" d="M876.89,1657.76v-90.45h12.75l28.99,45.76c6.71,10.6,11.94,20.13,16.24,29.39l0.27-0.13
				c-1.07-12.08-1.34-23.08-1.34-37.17v-37.85h11v90.45h-11.81l-28.72-45.9c-6.31-10.07-12.35-20.4-16.91-30.2l-0.4,0.13
				c0.67,11.41,0.94,22.28,0.94,37.31v38.65H876.89z"/>
		</g>
		<g>
			<path class="st2" d="M1023.57,1624.75c0,24.02-16.64,34.49-32.34,34.49c-17.58,0-31.14-12.88-31.14-33.42
				c0-21.74,14.23-34.49,32.21-34.49C1010.95,1591.33,1023.57,1604.89,1023.57,1624.75z M972.04,1625.42
				c0,14.23,8.19,24.96,19.73,24.96c11.27,0,19.73-10.6,19.73-25.23c0-11-5.5-24.96-19.46-24.96
				C978.07,1600.19,972.04,1613.07,972.04,1625.42z"/>
		</g>
		<g>
			<path class="st2" d="M1052.69,1574.15v18.65h16.91v8.99h-16.91v35.03c0,8.05,2.28,12.62,8.86,12.62c3.09,0,5.37-0.4,6.84-0.81
				l0.54,8.86c-2.28,0.94-5.9,1.61-10.47,1.61c-5.5,0-9.93-1.74-12.75-4.97c-3.36-3.49-4.56-9.26-4.56-16.91v-35.43h-10.06v-8.99
				h10.06v-15.57L1052.69,1574.15z"/>
		</g>
		<g>
			<path class="st2" d="M1111.74,1567.31h48.71v9.8h-37.04v30.06h34.22v9.66h-34.22v40.93h-11.68V1567.31z"/>
		</g>
		<g>
			<path class="st2" d="M1231.31,1624.75c0,24.02-16.64,34.49-32.34,34.49c-17.58,0-31.13-12.88-31.13-33.42
				c0-21.74,14.23-34.49,32.21-34.49C1218.7,1591.33,1231.31,1604.89,1231.31,1624.75z M1179.78,1625.42
				c0,14.23,8.19,24.96,19.73,24.96c11.27,0,19.73-10.6,19.73-25.23c0-11-5.5-24.96-19.46-24.96
				C1185.82,1600.19,1179.78,1613.07,1179.78,1625.42z"/>
		</g>
		<g>
			<path class="st2" d="M1300.56,1640.05c0,6.71,0.13,12.61,0.54,17.71h-10.47l-0.67-10.6h-0.27c-3.09,5.23-9.93,12.08-21.47,12.08
				c-10.2,0-22.41-5.64-22.41-28.45v-37.98h11.81v35.97c0,12.35,3.76,20.67,14.49,20.67c7.92,0,13.42-5.5,15.57-10.74
				c0.67-1.74,1.07-3.89,1.07-6.04v-39.86h11.81V1640.05z"/>
		</g>
		<g>
			<path class="st2" d="M1320.15,1610.39c0-6.71-0.13-12.21-0.54-17.58h10.47l0.67,10.74h0.27c3.22-6.17,10.74-12.21,21.47-12.21
				c8.99,0,22.95,5.37,22.95,27.65v38.78h-11.81v-37.44c0-10.47-3.89-19.19-15.03-19.19c-7.78,0-13.82,5.5-15.84,12.08
				c-0.54,1.48-0.81,3.49-0.81,5.5v39.05h-11.81V1610.39z"/>
		</g>
		<g>
			<path class="st2" d="M1450.73,1562.48v78.51c0,5.77,0.13,12.35,0.54,16.78h-10.6l-0.54-11.27h-0.27
				c-3.62,7.25-11.54,12.75-22.14,12.75c-15.7,0-27.78-13.29-27.78-33.01c-0.13-21.61,13.29-34.89,29.12-34.89
				c9.93,0,16.64,4.7,19.59,9.93h0.27v-38.78H1450.73z M1438.92,1619.24c0-1.48-0.13-3.49-0.54-4.97
				c-1.74-7.52-8.19-13.69-17.04-13.69c-12.21,0-19.46,10.74-19.46,25.1c0,13.15,6.44,24.02,19.19,24.02
				c7.92,0,15.16-5.23,17.31-14.09c0.4-1.61,0.54-3.22,0.54-5.1V1619.24z"/>
		</g>
		<g>
			<path class="st2" d="M1466.16,1650.78c0-4.97,3.35-8.45,8.05-8.45c4.7,0,7.92,3.49,7.92,8.45c0,4.83-3.09,8.46-8.05,8.46
				C1469.38,1659.24,1466.16,1655.61,1466.16,1650.78z"/>
		</g>
	</g>
	<g>
		<g>
			<path class="st3" d="M1497.75,971.1c-0.47,3.6-1.05,7.19-1.75,10.74c-4.81,24.69-14.88,47.91-30.25,66.43
				c-46.76,56.32-117.35,91.75-186.6,53.92c-48.04-26.26-85.34-63.15-139.82-78.82c-81.32-23.38-158.24-11.96-234.1,18.88
				c-7.37,2.99-14.73,6.17-22.07,9.51c-24.09,10.97-46.88,24.12-70.63,35.58c-35.02,16.91-84.97,29.76-123.74,31.54
				c-53.38,2.45-102.57-30.98-126.24-77.65c-10.69-21.08-26.77-49.87-30.46-73.39c-6.34-40.44-5.32-86.15,5.35-125.69
				c11.87-43.97,35.69-82.39,69.34-112.91c14.53-13.18,31.66-21.57,44.57-36.76c13.62-16.02,23.76-35.14,32.1-54.35
				c22.52-51.92,43.57-97.71,92.68-130.45c49.55-33.03,98.5-53.21,157.99-53.38c40.55-0.12,80.9,11.17,116.46,30.42
				c32.44,17.56,61.56,43.24,95.19,58.05c47.05,20.72,97.6,1.12,146.95,15.28c45.12,12.94,85.48,43.03,97.73,90.17
				c9.52,36.63,1.36,75.25,12.18,112.04c10.62,36.1,40.26,58.07,63.26,85.84C1492.91,878.72,1503.65,926.49,1497.75,971.1z"/>
		</g>
		<g>
			<g>
				<g>
					<path class="st4" d="M1432.66,954.62c-24.52-19.7-46.04-49.38-63.33-73.22c-4.64-6.42-9.03-12.47-12.94-17.54
						c-4.49-5.85-9.19-11.19-14.07-16.02c5.06-37.96-4.12-80.75-26.58-120.18c-16.26-28.52-47.66-50.43-80-55.79
						c-26.23-4.34-51.01,2.41-69.8,19.02c-9.37,8.29-15.15,17.92-20.73,27.22c-3.96,6.59-7.69,12.81-12.67,18.72
						c-20.38,24.25-56.13,37.37-88.97,32.67c-23.36-3.35-56.78-6.11-77.26,8.36c-2.15,1.52-2.67,4.5-1.14,6.65
						c1.52,2.15,4.5,2.66,6.65,1.14c19.74-13.95,57.87-8.49,70.39-6.7c4.86,0.69,9.76,1.03,14.68,1.03
						c31.57,0,63.56-13.93,82.96-37.01c5.45-6.49,9.57-13.33,13.54-19.94c5.46-9.09,10.61-17.68,18.87-24.99
						c21.27-18.8,45.4-19.49,61.92-16.75c29.61,4.91,58.38,24.97,73.26,51.1c20.13,35.31,29.1,73.31,26.16,107.52
						c-34.17-28.44-75.95-33.66-118.33-13.8c-28.5,13.36-52.41,47.31-54.43,77.29c-1.41,20.91,7.38,38.09,25.4,49.72
						c16.77,10.82,37.62,12.83,60.3,5.79c17.75-5.5,36.47-16.63,52.73-31.32c15.5-14.04,27.51-30.03,33.79-45.01
						c3.08-7.37,5.49-15.09,7.22-23.08c2.93,3.19,5.78,6.58,8.55,10.18c3.81,4.97,8.17,10.96,12.78,17.32
						c27.69,38.19,70.51,97.26,118.03,97.25c5.4,0,10.86-0.76,16.36-2.41c0.7-3.55,1.28-7.14,1.75-10.74
						C1477.7,979.05,1456.3,973.59,1432.66,954.62z M1324.25,878.89c-10.86,25.95-43.96,59.56-80.54,70.91
						c-13.88,4.29-34.21,6.97-52.3-4.7c-14.93-9.63-22.21-23.83-21.04-41.06c1.77-26.38,23.73-57.47,48.96-69.28
						c15.53-7.3,30.99-10.88,45.97-10.88c24.13,0,46.99,9.32,66.84,27.49C1330.52,860.97,1327.9,870.2,1324.25,878.89z"/>
					<path class="st2" d="M1479.63,985c-47.89,0-90.45-58.7-118.61-97.54c-4.56-6.3-8.96-12.34-12.78-17.32
						c-2.42-3.15-4.95-6.19-7.54-9.06c-1.72,7.54-4.05,14.86-6.95,21.79c-6.32,15.07-18.39,31.15-33.98,45.28
						c-16.36,14.78-35.18,25.96-53.01,31.48c-22.89,7.11-43.96,5.07-60.93-5.88c-18.27-11.79-27.17-29.22-25.74-50.4
						c2.04-30.23,26.13-64.45,54.86-77.92c41.81-19.59,83.66-14.97,118.02,12.99c2.58-34.01-6.69-71.47-26.18-105.66
						c-14.77-25.94-43.32-45.85-72.73-50.73c-16.34-2.71-40.25-2.04-61.3,16.57c-8.15,7.22-13.27,15.73-18.69,24.75
						c-4.01,6.68-8.12,13.51-13.65,20.1c-19.33,22.99-51.33,37.28-83.53,37.28c-4.96,0-9.94-0.35-14.79-1.04
						c-12.47-1.78-50.36-7.2-69.85,6.57c-1.2,0.85-2.67,1.18-4.12,0.93c-1.45-0.25-2.72-1.05-3.57-2.25
						c-0.85-1.2-1.19-2.66-0.94-4.11c0.25-1.46,1.05-2.73,2.26-3.59c20.72-14.64,54.33-11.86,77.8-8.49
						c32.6,4.67,68.08-8.36,88.29-32.41c4.92-5.84,8.62-12,12.54-18.53l0.06-0.09c5.61-9.35,11.42-19.02,20.88-27.4
						c18.96-16.76,43.97-23.58,70.42-19.2c32.55,5.39,64.16,27.44,80.53,56.16c22.27,39.1,31.75,81.8,26.72,120.28
						c4.83,4.81,9.5,10.13,13.87,15.83c3.87,5.01,8.15,10.92,12.95,17.56c17.29,23.83,38.76,53.45,63.19,73.08
						c23.5,18.86,44.55,24.22,64.34,16.37l1.18-0.47l-0.16,1.26c-0.48,3.68-1.07,7.31-1.76,10.79l-0.09,0.44l-0.43,0.13
						c-5.4,1.62-10.98,2.44-16.58,2.44C1479.64,985,1479.63,985,1479.63,985z M1339.85,857.93l0.98,1.07
						c2.95,3.21,5.84,6.65,8.59,10.23c3.83,5,8.24,11.05,12.79,17.34c28,38.61,70.29,96.94,117.41,96.94c0.01,0,0.01,0,0.01,0
						c5.3,0,10.59-0.76,15.71-2.25c0.57-2.92,1.07-5.94,1.49-9c-19.99,7.39-41.15,1.81-64.65-17.05v0
						c-24.59-19.75-46.13-49.46-63.44-73.33c-4.82-6.67-9.1-12.56-12.96-17.56c-4.42-5.75-9.13-11.12-14-15.94l-0.27-0.26l0.05-0.37
						c5.1-38.26-4.31-80.77-26.49-119.71c-16.16-28.34-47.35-50.1-79.47-55.42c-26-4.3-50.57,2.39-69.18,18.84
						c-9.29,8.22-15.03,17.79-20.58,27.04l-0.06,0.09c-3.95,6.58-7.69,12.8-12.68,18.72c-20.53,24.43-56.56,37.66-89.65,32.93
						c-23.22-3.33-56.44-6.1-76.72,8.23c-0.88,0.62-1.46,1.55-1.65,2.61c-0.18,1.06,0.06,2.12,0.68,2.99
						c0.62,0.88,1.55,1.46,2.6,1.64c1.06,0.18,2.13-0.06,3-0.68c19.97-14.11,58.31-8.63,70.91-6.83c4.8,0.68,9.7,1.02,14.59,1.02
						c31.77,0,63.34-14.08,82.39-36.74c5.46-6.5,9.53-13.28,13.47-19.84c5.52-9.18,10.69-17.8,19.02-25.17
						c21.5-19,45.87-19.69,62.54-16.93c29.84,4.95,58.8,25.15,73.79,51.47c19.91,34.93,29.24,73.27,26.26,107.96l-0.12,1.43
						l-1.1-0.92c-34.09-28.37-75.83-33.24-117.53-13.7c-28.28,13.25-52,46.93-54,76.66c-1.39,20.61,7.28,37.56,25.06,49.04
						c16.59,10.7,37.22,12.68,59.67,5.7c17.63-5.46,36.25-16.53,52.45-31.16c15.43-13.98,27.37-29.87,33.6-44.74
						c3.04-7.28,5.46-15,7.18-22.95L1339.85,857.93z M1220.9,954.21c-9.72,0-20.13-2.18-29.9-8.48
						c-15.18-9.79-22.57-24.22-21.38-41.74c1.79-26.64,23.94-58,49.39-69.91c15.46-7.27,31.03-10.95,46.29-10.95
						c24.27,0,47.56,9.57,67.35,27.69l0.3,0.28l-0.07,0.4c-1.64,9.75-4.32,19.06-7.94,27.68l0,0
						c-10.92,26.1-44.21,59.92-81.01,71.34C1237.38,952.54,1229.41,954.21,1220.9,954.21z M1265.3,824.63
						c-15.03,0-30.39,3.64-45.65,10.81c-25.01,11.71-46.78,42.5-48.53,68.65c-1.15,16.94,6.01,30.9,20.7,40.38
						c17.83,11.5,37.94,8.86,51.67,4.61c36.38-11.29,69.28-44.7,80.07-70.48v0c3.53-8.4,6.14-17.46,7.77-26.95
						C1311.89,833.97,1289.07,824.63,1265.3,824.63z"/>
				</g>
			</g>
		</g>
		<g>
			<g>
				<path class="st2" d="M935.81,729.88c8.22-6.04,22.83-10.57,32.61-3.71c7.34,5.15,12.26,13.28,14.93,21.7
					c3.64,11.48-3.35,19.62-12.93,24c-4.18,1.91-16.48,8.69-8.27,12.87c8.24,4.19,17.82-4.1,23.81-9.12
					c18.91-15.84,4.95-43.23-10.51-55.61c-11.83-9.47-29.88-12.36-42.92-2.9c-3.03,2.2-7.23,6.61-5.38,10.67
					C928.46,730.64,932.44,732.15,935.81,729.88z"/>
				<path class="st2" d="M967.01,786.65c-1.75,0-3.49-0.37-5.2-1.24c-2.14-1.09-3.21-2.46-3.17-4.1c0.1-4.67,9.57-9.25,11.47-10.12
					c5.21-2.39,16.86-9.41,12.53-23.09c-2.9-9.15-8.1-16.72-14.65-21.31c-8.88-6.23-22.97-2.74-31.73,3.7l-0.03,0.02
					c-1.74,1.18-3.77,1.52-5.7,0.98c-1.8-0.51-3.32-1.78-4.05-3.4c-1.9-4.16,1.66-8.71,5.62-11.59
					c13.84-10.05,32.52-6.14,43.83,2.92c9.48,7.59,19.75,22.24,19.91,36.49c0.09,8.17-3.07,14.99-9.39,20.29l-0.41,0.34
					C981.03,780.73,973.97,786.65,967.01,786.65z M956.66,721.94c4.27,0,8.5,1.02,12.19,3.61c6.81,4.78,12.22,12.63,15.22,22.09
					c3.31,10.44-1.55,19.52-13.33,24.91c-3.64,1.67-10.53,5.64-10.6,8.78c-0.02,1.01,0.77,1.93,2.35,2.73
					c7.61,3.87,16.62-3.69,22.58-8.69l0.41-0.34c5.96-4.99,8.94-11.43,8.85-19.12c-0.15-13.75-10.14-27.96-19.35-35.33
					c-10.86-8.7-28.78-12.48-42.01-2.87c-3.32,2.41-6.66,6.41-5.14,9.75c0.56,1.22,1.72,2.19,3.1,2.58
					c1.49,0.42,3.07,0.15,4.44-0.77C940.36,725.61,948.58,721.94,956.66,721.94z"/>
			</g>
			<g>
				<path class="st5" d="M1034.07,807.44c-7.76,4.33-16.71,14.14-25.69,14.98c-7.99,0.75-12.54-10.27-17.31-17.37
					c-6.87-10.23-11-20.3-24.93-20.63c-6.45-0.14-15.8,4.04-22.13,5.62c-10.99,2.74-24.67,4.05-33.02,12.59
					c-5.21,5.32-3.39,9.18-3.44,15.83c-0.06,8.1-1.49,16.23-1.78,24.34c-0.52,14.81-2.78,31.01,8.33,42.38
					c6.51,6.67,14.07,12.51,22.06,17.3c7.37,4.42,16.86,5.69,14.94,16.3c-1.11,6.14,0.5,14.04,8.55,14.55
					c5.93,0.38,10.22-8.4,12.89-12.5c3.01-4.62,10.22-13.65,5.88-19.28c-1.53-1.98-4.31-3.07-6.26-4.72
					c-9.76-8.26-27.56-16.23-31.07-29.71c-1.69-6.5-0.83-17.61,1.99-23.75c2.02-4.42,8.39-11.66,13.8-11.39
					c6.28,0.32,14.62,11.74,20.14,15.43c9.74,6.51,23.94,13.48,35.99,11.71c9.11-1.34,15.78-8.4,20.76-15.63
					c5.22-7.57,8.08-13.66,18.01-9.33c3.03,1.32,3.6,1.49,6.39-0.61c1.87-1.41,4.38-3.91,4.63-6.21c0.7-6.42-7.73-11.58-12.05-14.82
					C1044.93,808.17,1041.72,803.17,1034.07,807.44z"/>
				<path class="st2" d="M960,934.09c-0.14,0-0.28,0-0.42-0.01c-3.03-0.19-5.42-1.37-7.09-3.51c-2.19-2.8-3-7.26-2.15-11.93
					c1.4-7.71-3.65-10.11-9.5-12.89c-1.69-0.8-3.44-1.63-5.09-2.63c-8.33-5-15.8-10.86-22.21-17.42
					c-10.08-10.32-9.41-24.34-8.76-37.9c0.08-1.69,0.16-3.37,0.22-5.03c0.13-3.71,0.51-7.48,0.87-11.13
					c0.43-4.33,0.88-8.81,0.91-13.19c0.01-1.45-0.07-2.76-0.14-4.02c-0.27-4.44-0.48-7.95,3.8-12.33c6.9-7.05,17.46-9.31,26.77-11.3
					c2.31-0.49,4.49-0.96,6.6-1.49c2.02-0.5,4.35-1.28,6.83-2.1c5.16-1.71,10.98-3.65,15.5-3.55c12.36,0.29,17.18,7.87,22.75,16.65
					c0.9,1.41,1.82,2.86,2.79,4.31c0.95,1.41,1.87,2.94,2.84,4.56c3.85,6.41,7.82,13.03,13.78,12.48
					c5.74-0.54,11.51-4.91,17.09-9.13c2.9-2.2,5.64-4.27,8.3-5.76c6.74-3.76,10.38-0.71,14.61,2.83c0.91,0.76,1.84,1.54,2.86,2.31
					c0.5,0.38,1.07,0.78,1.66,1.21c4.52,3.26,11.35,8.19,10.68,14.29c-0.33,3.05-3.85,5.92-4.92,6.73c-3.09,2.33-3.96,2.09-7.14,0.7
					c-8.49-3.71-11.38,0.59-15.76,7.1c-0.43,0.64-0.87,1.29-1.33,1.96c-6.61,9.6-13.56,14.81-21.26,15.94
					c-13.42,1.97-28.64-6.56-36.52-11.83c-2.01-1.34-4.33-3.63-6.79-6.06c-4.31-4.24-9.19-9.05-12.97-9.24
					c-4.81-0.23-10.96,6.32-13.08,10.95c-2.72,5.93-3.62,16.8-1.94,23.25c2.48,9.51,12.52,16.37,21.38,22.42
					c3.47,2.37,6.74,4.61,9.45,6.9c0.73,0.61,1.57,1.15,2.47,1.71c1.42,0.89,2.89,1.81,3.9,3.12c4.17,5.42-1.15,13.23-4.68,18.4
					c-0.43,0.63-0.83,1.21-1.17,1.74c-0.38,0.59-0.8,1.28-1.25,2.02C969.26,927.6,965.31,934.09,960,934.09z M965.81,785.17
					c-4.2,0-9.77,1.84-14.69,3.48c-2.5,0.83-4.86,1.61-6.94,2.13c-2.14,0.53-4.33,1-6.65,1.5c-9.56,2.05-19.44,4.16-26.02,10.88
					c-3.82,3.9-3.64,6.8-3.38,11.19c0.08,1.29,0.16,2.61,0.15,4.12c-0.03,4.45-0.48,8.96-0.92,13.33
					c-0.36,3.62-0.73,7.37-0.86,11.03c-0.06,1.67-0.14,3.36-0.22,5.05c-0.63,13.23-1.29,26.92,8.33,36.78
					c6.32,6.47,13.69,12.25,21.91,17.18c1.59,0.95,3.3,1.77,4.96,2.56c5.87,2.79,11.94,5.68,10.33,14.52
					c-0.77,4.25-0.08,8.26,1.85,10.74c1.4,1.78,3.41,2.77,6,2.94c4.6,0.3,8.42-5.96,10.94-10.1c0.46-0.76,0.89-1.46,1.28-2.06
					c0.35-0.53,0.75-1.13,1.19-1.77c3.28-4.81,8.24-12.09,4.73-16.64c-0.84-1.1-2.14-1.91-3.51-2.77c-0.9-0.57-1.84-1.15-2.65-1.84
					c-2.65-2.24-5.89-4.46-9.33-6.81c-9.08-6.2-19.37-13.23-21.98-23.28c-1.75-6.73-0.8-18.07,2.03-24.26
					c2.02-4.41,8.6-12.15,14.52-11.83c4.35,0.22,9.23,5.03,13.94,9.67c2.41,2.37,4.69,4.62,6.58,5.88
					c7.7,5.14,22.54,13.49,35.46,11.59c7.26-1.07,13.89-6.08,20.25-15.31c0.46-0.66,0.9-1.31,1.32-1.95
					c4.45-6.62,7.98-11.85,17.6-7.64c2.83,1.24,3.13,1.37,5.64-0.53c1.87-1.41,4.12-3.75,4.34-5.7c0.57-5.23-5.83-9.85-10.06-12.91
					c-0.6-0.44-1.17-0.85-1.69-1.23c-1.05-0.79-2-1.59-2.92-2.36c-4.11-3.44-7.08-5.93-12.92-2.67l-0.37-0.65l0.37,0.65
					c-2.57,1.44-5.27,3.48-8.13,5.64c-5.75,4.35-11.69,8.85-17.86,9.43c-6.89,0.65-11.31-6.71-15.2-13.2
					c-0.96-1.6-1.87-3.11-2.8-4.49c-0.98-1.46-1.9-2.91-2.81-4.34c-5.35-8.42-9.96-15.68-21.52-15.96
					C966.02,785.17,965.92,785.17,965.81,785.17z"/>
			</g>
			<g>
				<path class="st5" d="M886.27,737.69c-6.74-0.15-10.76-5.13-18.06-0.45c-7.94,5.1-7.72,17.83-9.46,26.25
					c-1.13,5.45-0.56,7.76-5.56,7.16c-3.98-0.48-7.71-3.94-11.13-5.78c-4.51-2.42-14.33-9.3-20.42-9.66
					c-1.73-5.8-14.08-24.65-16.3-12.67c-4.11,0.78-8.87-3.31-13.14-1.46c-3.01,1.3-1.6,2.08-1.83,4.41
					c-0.21,2.22-1.51,3.93-1.48,6.05c0.06,3.15,2.04,3.09,3.76,5.19c1.17,1.44,1.12,3.8,2.35,5.3c2.58,3.16,10.74,4.03,14.66,4.25
					c1.21,0.07,2.27-0.06,3.24-0.31c0.02,0.08,0.03,0.17,0.06,0.26c1.39,3.93,7.67,8.03,10.93,10.31
					c8.69,6.07,19.99,15.38,30.8,16.73C878.14,796.19,901.24,755.76,886.27,737.69z"/>
				<path class="st2" d="M857.13,794.15c-0.85,0-1.69-0.05-2.53-0.16c-9.36-1.18-19.17-8.25-27.04-13.94
					c-1.42-1.02-2.78-2.01-4.09-2.92l-0.82-0.57c-3.48-2.41-8.68-6.01-10.25-9.73c-0.9,0.17-1.82,0.23-2.79,0.18
					c-4.5-0.25-12.46-1.18-15.2-4.52c-0.72-0.88-1.04-1.94-1.35-2.97c-0.27-0.89-0.52-1.74-1-2.33c-0.52-0.64-1.07-1.06-1.61-1.47
					c-1.12-0.85-2.27-1.73-2.31-4.18c-0.02-1.28,0.38-2.4,0.77-3.48c0.32-0.89,0.62-1.72,0.71-2.65c0.06-0.59-0.01-1.06-0.07-1.52
					c-0.19-1.42-0.13-2.44,2.34-3.51c2.62-1.13,5.29-0.29,7.87,0.53c1.75,0.56,3.42,1.09,4.94,0.95c0.58-2.55,1.72-3.89,3.39-3.98
					c0.05,0,0.11,0,0.16,0c4.98,0,12.3,12.08,13.93,16.62c4.85,0.54,11.51,4.54,16.43,7.5c1.49,0.89,2.77,1.67,3.79,2.21
					c1.09,0.59,2.18,1.31,3.33,2.08c2.44,1.63,4.96,3.3,7.53,3.61c3.5,0.42,3.65-0.46,4.29-4.17c0.12-0.72,0.26-1.52,0.44-2.39
					c0.37-1.81,0.65-3.81,0.95-5.94c1.09-7.79,2.33-16.62,8.84-20.8c5.06-3.25,8.8-2.07,12.41-0.93c1.89,0.6,3.84,1.21,6.07,1.26
					l0.34,0.01l0.22,0.26c6.85,8.26,6.49,22.31-0.9,35.78C878.75,786.11,867.67,794.15,857.13,794.15z M813.43,765.03l0.23,0.86
					c1.21,3.45,6.62,7.19,9.84,9.43l0.83,0.57c1.31,0.92,2.69,1.91,4.11,2.94c7.74,5.59,17.37,12.54,26.35,13.67
					c12.11,1.52,23.71-9.06,29.84-20.23c7.02-12.78,7.5-26.02,1.27-33.84c-2.29-0.11-4.25-0.72-6.14-1.32
					c-3.58-1.13-6.68-2.11-11.15,0.76c-5.92,3.8-7.11,12.27-8.16,19.74c-0.3,2.15-0.59,4.18-0.97,6.03
					c-0.18,0.86-0.31,1.64-0.43,2.35c-0.65,3.74-1.03,6-5.95,5.4c-2.92-0.35-5.59-2.13-8.18-3.85c-1.12-0.75-2.18-1.45-3.21-2.01
					c-1.05-0.56-2.35-1.34-3.85-2.25c-4.96-2.98-11.74-7.06-16.26-7.33l-0.52-0.03l-0.15-0.5c-1.45-4.86-8.87-16.04-12.63-16.04
					c-0.03,0-0.07,0-0.1,0c-1.01,0.05-1.71,1.16-2.11,3.29l-0.09,0.5l-0.5,0.1c-2.02,0.39-4.13-0.28-6.16-0.93
					c-2.43-0.77-4.72-1.5-6.82-0.58c-1.61,0.7-1.58,0.94-1.45,1.93c0.07,0.49,0.15,1.1,0.07,1.86c-0.11,1.12-0.46,2.08-0.79,3.02
					c-0.36,1-0.7,1.94-0.68,2.94c0.03,1.73,0.67,2.21,1.72,3.01c0.58,0.44,1.23,0.94,1.87,1.72c0.67,0.83,0.98,1.85,1.28,2.85
					c0.28,0.93,0.54,1.81,1.07,2.45c2.53,3.09,11.45,3.82,14.12,3.97c1.06,0.06,2.05-0.03,3.01-0.29L813.43,765.03z"/>
			</g>
			<g>
				<path class="st5" d="M879.8,728.6c-7.27-1.42-7.16,16.58-7.06,20.73c0.2,7.91,2.97,16.38,7.07,23.22
					c5.56,9.27,12.77,17.59,18.14,26.94c3.48,6.06,3.18,16.22,10.12,19.66c5.27,2.61,15.29-1.04,20.62-2.84
					c16.5-5.58,29.03-13.25,41.14-25.92c10.51-11,1.01-17.21-5.67-27.07c-7.63-11.26-11.65-24.32-18.09-36.2
					c-7.73-14.26-19.83-21.69-35.61-15.97c-6.24,2.27-13.27,5.54-18.81,9.1C888.94,721.98,885.4,726.36,879.8,728.6z"/>
				<path class="st2" d="M912.73,820.8c-1.86,0-3.58-0.28-4.99-0.98c-4.8-2.38-6.31-7.62-7.77-12.7c-0.77-2.68-1.5-5.21-2.67-7.26
					c-2.8-4.88-6.18-9.58-9.44-14.11c-2.97-4.13-6.04-8.39-8.69-12.82c-4.37-7.28-6.99-15.88-7.18-23.59
					c-0.13-4.99,0.03-16.98,4.23-20.53c1.01-0.86,2.19-1.19,3.5-0.99c3.56-1.46,6.28-3.84,8.47-5.76c1.14-1,2.13-1.86,3.07-2.46
					c5.23-3.35,12.14-6.7,18.96-9.17c14.91-5.41,27.89,0.39,36.52,16.32c2.59,4.79,4.83,9.83,6.99,14.71
					c3.21,7.24,6.53,14.74,11.06,21.43c1.28,1.88,2.66,3.63,3.99,5.33c5.65,7.16,10.53,13.34,1.6,22.69
					c-11.97,12.53-24.37,20.34-41.44,26.12l-0.83,0.28C923.97,818.7,917.81,820.8,912.73,820.8z M879.01,729.27
					c-0.67,0-1.27,0.23-1.82,0.69c-3.02,2.55-3.89,11.67-3.7,19.35c0.19,7.46,2.73,15.79,6.97,22.85c2.62,4.37,5.67,8.61,8.62,12.71
					c3.29,4.57,6.69,9.29,9.53,14.24c1.27,2.2,2.05,4.94,2.81,7.59c1.37,4.76,2.78,9.68,6.99,11.77c4.72,2.33,13.79-0.75,19.21-2.6
					l0.84-0.28c16.83-5.69,29.05-13.39,40.84-25.73c8.03-8.4,3.95-13.57-1.69-20.72c-1.35-1.71-2.75-3.49-4.06-5.41
					c-4.61-6.81-7.96-14.36-11.19-21.66c-2.15-4.85-4.37-9.87-6.94-14.6c-8.24-15.2-20.56-20.75-34.69-15.62
					c-6.73,2.44-13.53,5.73-18.66,9.02c-0.84,0.54-1.79,1.37-2.89,2.33c-2.32,2.03-5.21,4.55-9.1,6.1l-0.21,0.08l-0.22-0.04
					C879.43,729.29,879.22,729.27,879.01,729.27z"/>
			</g>
			<g>
				<path class="st5" d="M923.44,707.38c0.95,6.67-3.3,11.46,2.51,17.89c6.33,7,18.85,4.7,27.45,5.04c5.56,0.22,7.75-0.72,7.97,4.31
					c0.18,4-2.63,8.25-3.88,11.92c-1.65,4.85-6.83,15.66-6.19,21.72c-5.44,2.65-22.01,17.93-9.83,18.15
					c1.44,3.93-1.82,9.3,0.71,13.21c1.78,2.76,2.31,1.24,4.65,1.08c2.23-0.15,4.12,0.85,6.21,0.47c3.1-0.57,2.71-2.52,4.5-4.55
					c1.23-1.39,3.56-1.73,4.84-3.18c2.69-3.07,2.21-11.25,1.79-15.15c-0.13-1.2-0.43-2.23-0.84-3.15c0.08-0.04,0.17-0.06,0.24-0.1
					c3.65-2.01,6.66-8.88,8.38-12.47c4.56-9.56,11.9-22.24,11.47-33.12C982.48,705.83,938.82,689.66,923.44,707.38z"/>
				<path class="st2" d="M952.02,802.01c-0.83,0-1.64-0.15-2.42-0.29c-0.93-0.17-1.8-0.33-2.73-0.27c-0.59,0.04-1.05,0.18-1.48,0.31
					c-1.37,0.42-2.38,0.53-3.84-1.73c-1.55-2.4-1.15-5.17-0.77-7.85c0.26-1.82,0.51-3.55,0.13-5.03c-2.61-0.15-4.12-1.06-4.48-2.7
					c-1.08-4.87,9.83-14.25,14.09-16.62c-0.26-4.87,2.6-12.1,4.71-17.43c0.64-1.61,1.19-3.01,1.56-4.1c0.4-1.17,0.94-2.37,1.51-3.63
					c1.2-2.67,2.45-5.44,2.33-8.02c-0.15-3.52-1.05-3.53-4.82-3.55c-0.73,0-1.54-0.01-2.43-0.05c-1.84-0.07-3.87-0.02-6.01,0.03
					c-7.87,0.2-16.78,0.42-21.96-5.31c-4.03-4.46-3.48-8.34-2.95-12.09c0.28-1.96,0.57-3.99,0.25-6.2l-0.05-0.34l0.22-0.26
					c7.03-8.11,20.95-10.05,35.44-4.97c15.25,5.35,25.4,16.14,25.84,27.48c0.37,9.43-5.01,20.26-9.33,28.96
					c-0.78,1.56-1.53,3.08-2.21,4.52l-0.43,0.9c-1.81,3.83-4.5,9.55-7.92,11.7c0.32,0.85,0.53,1.75,0.63,2.72
					c0.49,4.48,0.88,12.48-1.97,15.73c-0.75,0.85-1.74,1.34-2.71,1.81c-0.84,0.41-1.63,0.8-2.13,1.37
					c-0.54,0.62-0.87,1.23-1.19,1.83c-0.65,1.24-1.33,2.52-3.75,2.97C952.77,801.98,952.39,802.01,952.02,802.01z M947.3,799.94
					c0.91,0,1.76,0.15,2.58,0.31c1.04,0.19,2.03,0.37,3.01,0.19c1.7-0.31,2.07-1.02,2.69-2.19c0.34-0.64,0.72-1.37,1.39-2.12
					c0.7-0.8,1.67-1.27,2.6-1.73c0.87-0.43,1.69-0.83,2.24-1.46c2.64-3,1.9-11.92,1.61-14.58c-0.12-1.06-0.37-2.01-0.78-2.92
					l-0.3-0.68l0.81-0.37c3.21-1.76,6.01-7.7,7.69-11.26l0.43-0.91c0.69-1.45,1.44-2.96,2.23-4.54c4.24-8.55,9.53-19.18,9.17-28.23
					c-0.48-12.19-12.82-21.91-24.84-26.13c-13.76-4.83-26.89-3.14-33.59,4.28c0.27,2.28-0.02,4.31-0.3,6.27
					c-0.53,3.72-0.98,6.93,2.58,10.87c4.72,5.22,13.27,5.01,20.81,4.82c2.17-0.05,4.21-0.11,6.11-0.03
					c0.88,0.03,1.67,0.04,2.38,0.04c3.8,0.03,6.09,0.04,6.31,4.99c0.13,2.94-1.19,5.87-2.46,8.7c-0.55,1.23-1.08,2.39-1.45,3.5
					c-0.38,1.13-0.94,2.54-1.59,4.17c-2.13,5.38-5.04,12.74-4.57,17.24l0.05,0.52l-0.47,0.23c-4.6,2.25-14.55,11.54-13.74,15.18
					c0.22,0.98,1.43,1.5,3.59,1.54l0.51,0.01l0.18,0.48c0.71,1.93,0.4,4.12,0.09,6.23c-0.36,2.52-0.7,4.9,0.54,6.83
					c0.95,1.48,1.18,1.41,2.14,1.11c0.47-0.14,1.06-0.32,1.82-0.38C946.95,799.95,947.12,799.94,947.3,799.94z"/>
			</g>
			<g>
				<path class="st5" d="M929.3,653.03c-3.82-5.47-10.5-7.95-14.99-4.89c-0.32-0.42-0.64-0.85-0.97-1.26
					c-7.72-9.7-17.98-14.51-30.34-12.84c-11.39,1.54-26.72,5.72-35.73,12.89c-4.54,3.61-8.49,7.86-11.58,12.78
					c-3.11,4.95-5.31,10.46-6.45,16.19c-0.29,1.45-1.94,16.49-0.5,16.55c-1.61-0.07-3.22,0.27-4.19,1.13
					c-2.43,2.18-1.3,6.95-0.71,9.62c1.44,6.45,7.05,20.82,13.94,23.14c2.9,0.98,4.88,0.64,6.13-0.58c2.26,2.62,4.74,5.1,7.47,7.44
					c10.65,9.12,24.79,7.91,38.05,4.07c20.17-5.84,41.77-21.14,42.38-43.49c0.06-2.06-0.03-4.13-0.25-6.21
					c1.47-0.22,2.99-1.03,4.56-2.58C942.46,678.72,933.4,658.89,929.3,653.03z"/>
				<path class="st2" d="M871.7,740.87c-8.39,0-15.26-2.36-20.8-7.1c-2.52-2.16-4.9-4.5-7.07-6.97c-1.53,1.05-3.64,1.14-6.28,0.25
					c-7.41-2.5-13.02-17.31-14.44-23.69l-0.04-0.17c-0.65-2.9-1.73-7.75,0.98-10.17c0.82-0.74,2.08-1.2,3.54-1.31
					c-0.68-3.96,0.89-15.84,0.91-15.97c1.17-5.85,3.38-11.39,6.56-16.45c3.02-4.81,6.97-9.17,11.75-12.96
					c9.13-7.26,24.63-11.5,36.1-13.05c12.16-1.64,22.89,2.9,31.03,13.12c0.19,0.24,0.38,0.49,0.57,0.73
					c4.66-2.6,11.42-0.27,15.42,5.45c3.33,4.76,13.84,25.89,6.73,32.93c-1.39,1.37-2.82,2.26-4.27,2.64
					c0.17,1.92,0.23,3.81,0.18,5.63c-0.64,23.63-23.52,38.58-42.92,44.19C883.02,739.91,877.05,740.87,871.7,740.87z M843.97,724.67
					l0.52,0.6c2.25,2.61,4.73,5.09,7.39,7.36c8.77,7.51,20.64,8.76,37.35,3.92c18.91-5.48,41.21-19.97,41.84-42.79
					c0.05-1.97-0.03-4.03-0.24-6.11l-0.07-0.71l0.71-0.11c1.37-0.2,2.76-1,4.14-2.37c5.67-5.61-2.37-24.51-6.9-31
					c-3.71-5.31-9.96-7.42-13.95-4.7l-0.58,0.4l-0.75-0.98c-0.21-0.28-0.43-0.56-0.64-0.83c-7.79-9.79-18.04-14.14-29.65-12.57
					c-11.27,1.52-26.48,5.66-35.37,12.73c-4.64,3.69-8.48,7.93-11.41,12.59c-3.08,4.9-5.22,10.27-6.35,15.94
					c-0.36,1.82-1.62,14.48-0.82,15.85c-0.03-0.06-0.17-0.18-0.38-0.19l0,0l-0.07,1.5l0,0l0,0c-1.56-0.07-2.92,0.28-3.65,0.94
					c-2.05,1.84-1.09,6.15-0.52,8.73l0.04,0.17c1.47,6.6,7.1,20.45,13.45,22.59c2.44,0.82,4.25,0.68,5.37-0.41L843.97,724.67z"/>
			</g>
			<g>
				<path class="st2" d="M845.44,669.79c-14.04,12.36-2.94,42.15,10.27,51.43c17.81,12.52,42.34-2.57,55.24-15.67
					c13.52-13.73,6.78-30.03-2.06-45.17c-8.85-15.14-20.06-14.69-35.62-10.24C863.78,652.85,850.11,658.78,845.44,669.79z"/>
				<path class="st2" d="M870.94,726.71c-5.42,0-10.76-1.42-15.67-4.88c-8.87-6.23-16.35-20.99-17.04-33.6
					c-0.44-8.09,1.83-14.62,6.58-18.89c5.1-11.77,19.87-17.53,28.24-19.93c16.44-4.7,27.67-4.47,36.47,10.58
					c9.15,15.67,15.73,32.09,1.95,46.08C902.63,715.07,886.45,726.71,870.94,726.71z M888.64,648.19c-4.44,0-9.44,1.03-15.17,2.67
					c-8.15,2.33-22.55,7.93-27.34,19.23l-0.07,0.16l-0.13,0.11c-5.66,4.99-6.5,12.43-6.21,17.79c0.67,12.21,7.88,26.46,16.41,32.46
					c18.16,12.77,42.66-3.79,54.27-15.58c13.07-13.27,6.68-29.12-2.18-44.27C902.85,651.56,896.66,648.19,888.64,648.19z"/>
			</g>
			<g>
				<path class="st2" d="M1021.15,857.47c-0.53,0-1.04-0.28-1.31-0.77c-10.8-19.29-11.94-33.64-11.99-34.24
					c-0.06-0.83,0.56-1.54,1.39-1.6c0.82-0.07,1.54,0.56,1.61,1.39c0.01,0.14,1.16,14.32,11.61,32.99c0.4,0.72,0.15,1.64-0.58,2.04
					C1021.65,857.41,1021.4,857.47,1021.15,857.47z"/>
			</g>
			<g>
				<path class="st2" d="M934.64,903.39c-0.16,0-0.33-0.03-0.49-0.08c-0.78-0.27-1.2-1.12-0.93-1.9c0.23-0.68,5.82-16.66,18.1-20.43
					c0.79-0.24,1.63,0.2,1.87,0.99c0.24,0.79-0.2,1.63-0.99,1.87c-10.8,3.31-16.09,18.38-16.14,18.53
					C935.84,903,935.26,903.39,934.64,903.39z"/>
			</g>
			<g>
				<path class="st2" d="M971.94,764.06c-0.57,0-1.12-0.33-1.37-0.89c-3.44-7.66-15.64-7.06-15.76-7.05
					c-0.86,0.04-1.54-0.58-1.58-1.41c-0.05-0.83,0.58-1.54,1.41-1.58c0.58-0.04,14.39-0.74,18.68,8.82c0.34,0.76,0,1.64-0.75,1.98
					C972.36,764.01,972.15,764.06,971.94,764.06z"/>
			</g>
			<g>
				<path class="st2" d="M821.89,776.34c-0.52,0-1.03-0.27-1.3-0.75c-0.41-0.72-0.16-1.64,0.55-2.05
					c7.07-4.06,9.75-14.61,9.78-14.72c0.2-0.8,1.01-1.29,1.82-1.09c0.8,0.2,1.29,1.01,1.09,1.82c-0.12,0.48-3.04,11.91-11.2,16.6
					C822.4,776.27,822.14,776.34,821.89,776.34z"/>
			</g>
			<g>
				<path class="st2" d="M912.61,821.06c-2.99,0-4.67-0.4-4.92-0.47c-0.8-0.21-1.28-1.03-1.07-1.83c0.21-0.8,1.02-1.28,1.83-1.07
					c0.27,0.07,24.63,5.62,65.2-32.73c0.6-0.57,1.55-0.54,2.12,0.06c0.57,0.6,0.54,1.55-0.06,2.12
					C943.95,817.17,921.91,821.06,912.61,821.06z"/>
			</g>
			<g>
				<path class="st5" d="M892.69,755.01c1.5,5.93,4.99,11.65,7.79,17.05c1.76,3.4,5.08,12.64,9.23,13.54
					c2.11,0.46,4.97-1.68,6.72-2.54c2.51-1.23,4.97-2.42,7.55-3.5c3.18-1.33,8.3-3.19,10.56-5.9c1.9-2.27-0.51-7.26-1.45-10.04
					c-1.63-4.82-3.88-9.41-5.76-14.13c-1.2-3-2.34-5.94-4.23-8.57c-1.58-2.2-2.63-2.06-5.35-1.22c-8.46,2.61-18.56,6.74-24.7,13.19
					C893.1,753.43,893.07,754.12,892.69,755.01z"/>
				<path class="st2" d="M910.32,786.42c-0.26,0-0.52-0.03-0.78-0.08c-3.72-0.81-6.53-6.96-8.57-11.46
					c-0.45-0.98-0.84-1.83-1.17-2.47c-0.55-1.07-1.13-2.15-1.72-3.24c-2.41-4.49-4.9-9.13-6.13-13.97l-0.06-0.25l0.1-0.23
					c0.26-0.61,0.36-1.18,0.3-1.72l-0.04-0.35l0.24-0.25c5.06-5.32,13.48-9.82,25.02-13.39c2.75-0.85,4.27-1.17,6.18,1.5
					c1.88,2.62,3.01,5.45,4.21,8.44l0.11,0.29c0.69,1.74,1.45,3.49,2.18,5.18c1.26,2.91,2.56,5.92,3.6,8.99
					c0.15,0.44,0.34,0.95,0.54,1.48c1.11,2.97,2.64,7.04,0.77,9.27c-2.11,2.53-6.46,4.3-9.63,5.6c-0.43,0.18-0.84,0.34-1.22,0.5
					c-2.54,1.07-4.9,2.21-7.51,3.49c-0.39,0.19-0.83,0.45-1.31,0.72C913.9,785.35,912.03,786.42,910.32,786.42z M893.47,755.06
					c1.2,4.58,3.61,9.06,5.93,13.4c0.59,1.1,1.17,2.19,1.73,3.26c0.35,0.67,0.74,1.54,1.2,2.54c1.7,3.73,4.54,9.97,7.53,10.61
					c1.34,0.29,3.27-0.82,4.83-1.71c0.51-0.29,0.99-0.57,1.4-0.77c2.53-1.24,5.02-2.44,7.59-3.52c0.38-0.16,0.8-0.33,1.23-0.51
					c3.03-1.24,7.17-2.94,9.05-5.18c1.31-1.57-0.1-5.31-1.02-7.78c-0.21-0.55-0.4-1.07-0.56-1.53c-1.02-3.01-2.31-5.99-3.55-8.87
					c-0.74-1.7-1.5-3.47-2.2-5.22l-0.11-0.29c-1.16-2.91-2.25-5.65-4.03-8.12c-1.27-1.77-1.85-1.76-4.52-0.94
					c-11.12,3.43-19.24,7.72-24.15,12.75C893.83,753.8,893.72,754.42,893.47,755.06z"/>
			</g>
			<g>
				<path class="st5" d="M903.8,757.32c-0.53,2.06,2.13,6.81,3.01,8.84c0.86,1.99,1.46,4.62,3.76,4.71c2.61,0.1,7.19-2.5,9.47-3.77
					c2-1.12,2.58-1.49,2.31-3.67c-0.39-3.2-3.02-12.16-6.89-12.7C912.03,750.25,906.04,753.9,903.8,757.32z"/>
				<path class="st2" d="M910.72,771.62c-0.06,0-0.12,0-0.18,0c-2.42-0.1-3.31-2.36-4.02-4.19c-0.13-0.33-0.26-0.66-0.4-0.98
					c-0.17-0.4-0.42-0.91-0.69-1.48c-1.2-2.5-2.85-5.92-2.36-7.84l0.1-0.23c2.34-3.57,8.52-7.46,12.4-6.92
					c4.51,0.63,7.13,10.15,7.53,13.35c0.32,2.62-0.54,3.21-2.69,4.41l-0.18,0.1C917.86,769.18,913.48,771.62,910.72,771.62z
					 M904.5,757.62c-0.25,1.45,1.33,4.73,2.28,6.7c0.29,0.59,0.54,1.12,0.72,1.54c0.14,0.33,0.28,0.68,0.42,1.03
					c0.77,1.98,1.34,3.18,2.69,3.24c2.31,0.1,6.77-2.39,8.9-3.58l0.18-0.1c1.9-1.06,2.14-1.2,1.93-2.92
					c-0.42-3.4-3.05-11.6-6.25-12.05C912.42,751.06,906.79,754.26,904.5,757.62z"/>
			</g>
		</g>
		<g>
			<polygon class="st0" points="623.32,824.39 625.94,834.77 636.32,837.39 625.94,840.01 623.32,850.39 620.7,840.01 
				610.32,837.39 620.7,834.77 			"/>
		</g>
		<g>
			<polygon class="st0" points="723.59,922.46 731.79,954.96 764.28,963.15 731.79,971.35 723.59,1003.84 715.4,971.35 
				682.9,963.15 715.4,954.96 			"/>
		</g>
		<g>
			<polygon class="st0" points="1088.71,600.5 1092.32,614.82 1106.64,618.43 1092.32,622.04 1088.71,636.36 1085.1,622.04 
				1070.78,618.43 1085.1,614.82 			"/>
		</g>
		<g>
			<polygon class="st0" points="947.12,541.91 951.25,558.29 967.63,562.42 951.25,566.55 947.12,582.93 942.99,566.55 
				926.61,562.42 942.99,558.29 			"/>
		</g>
		<g>
			<polygon class="st0" points="1085.58,899.04 1090.88,920.07 1111.9,925.37 1090.88,930.67 1085.58,951.69 1080.27,930.67 
				1059.25,925.37 1080.27,920.07 			"/>
		</g>
		<g>
			<polygon class="st0" points="1268.56,722.94 1272.52,738.66 1288.23,742.62 1272.52,746.59 1268.56,762.3 1264.59,746.59 
				1248.88,742.62 1264.59,738.66 			"/>
		</g>
		<g>
			<circle class="st0" cx="809.98" cy="606.59" r="35.88"/>
		</g>
		<g>
			<path class="st0" d="M796.78,606.58c-6.53,4.64-13.07,9.26-19.54,13.98c-0.08,0.06-0.16,0.11-0.24,0.18
				c-1.87-4.34-2.9-9.12-2.9-14.15c0-19.82,16.06-35.89,35.88-35.89c9.84,0,18.74,3.96,25.23,10.36
				C822.09,589.09,809.32,597.69,796.78,606.58z"/>
		</g>
		<g>
			<path class="st6" d="M875.08,563.02c-1.87-4.43-20.82,7.01-22.66,8.03c-5.8,3.21-11.54,6.57-17.21,10.02
				c1.02,1.01,1.98,2.07,2.86,3.2c4.35-2.2,10.98-5.38,9.53-3.95c-1.15,1.13-4.3,3.89-7.55,6.7c-3.73,3.21-7.57,6.47-8.6,7.35
				c-11.33,9.63-24.41,17.85-37.12,25.53c-4.42,2.67-8.84,5.33-13.37,7.81c-1.38,0.75-2.78,1.5-4.19,2.22
				c-3.18,1.62-5.99,3.99-9.64,4.18c4.73-5.14,7.13-7.03,11.47-10.09c-0.59-1.06-1.13-2.15-1.61-3.27
				c-3.6,2.62-7.07,5.34-10.66,7.96c-1.68,1.24-3.28,2.59-4.98,3.82c-6.25,4.5-13.67,9.64-17.94,16.19
				c-0.72,1.1-1.89,2.49-1.19,3.87c2.21,4.34,13.98-3.91,16.39-5.14c9.04-4.63,17.77-9.77,26.47-15.01
				c0.98-0.59,1.98-1.18,2.96-1.78c18.77-11.36,38.04-23.4,55.35-37.16c2.32-1.84,4.59-3.71,6.83-5.61
				C853.44,585.11,877.45,568.63,875.08,563.02z"/>
		</g>
	</g>
</g>
</svg>
