<svg id="Livello_2" data-name="Livello 2" xmlns="http://www.w3.org/2000/svg" xmlns:xlink="http://www.w3.org/1999/xlink" viewBox="0 0 4726.82 2581.33"><defs><style>.cls-1{fill:#1070ca;}.cls-2{fill:#ddebf7;}.cls-3{fill:#bb7937;}.cls-4{fill:#1d1d1b;}.cls-5{fill:#ffd100;}.cls-6{fill:#6bafef;}.cls-7{fill:#084b8a;}.cls-8{fill:#ffb67a;}.cls-9{fill:#132478;}.cls-10{clip-path:url(#clip-path);}.cls-11{fill:#944e22;}.cls-12{fill:#fff;}.cls-13{clip-path:url(#clip-path-2);}.cls-14{fill:#ffcaa5;}.cls-15{fill:#90d1e2;}.cls-16{clip-path:url(#clip-path-3);}</style><clipPath id="clip-path"><path class="cls-1" d="M3563.51,2050.15c257,66.63,809.06,25.39,809.06,25.39,208.88-21.19,318.79-22.61,348.39-173.88,20.79-106.27-18.67-211-40.62-314-22.77-106.8-13-209.49-19.05-318.15-4.33-77.31-25.92-150.22-86.2-203.6a655.23,655.23,0,0,0-97.64-71.56c-38.05-22.55-90.44-63-133.43-70.51l-466.4-3.17c-45.06,4.45-111.31,43.56-150.89,65.16-32.3,17.62-67.44,48-77.55,84"/></clipPath><clipPath id="clip-path-2"><path class="cls-2" d="M2552.07,727.12s38.1,812,39.23,1135.34c42.57,28.38,67.4,17.74,92.23,21.29C2726.1,1372.9,2837.16,837.91,2855.8,747.92c0,0-114,78.52-160.29,92.2Z"/></clipPath><clipPath id="clip-path-3"><path class="cls-3" d="M1010.3,883.74s26.93-41.62,19.59-75.9-17.14-85.69-17.14-85.69S912.08,655.51,892,520.09s76.85-194,76.85-194L996.25,306s49.41,51.24,69.54,58.56,102.48,32.94,119,56.73,0,166.52-47.58,245.21c0,0-16.47,29.28-3.66,45.74s56.72,100.65,56.72,100.65l42.09,14.64s-16.47,108-129.92,109.8S1010.3,883.74,1010.3,883.74Z"/></clipPath></defs><path class="cls-4" d="M2950.78,2578.52c3.22,0,3.22-5,0-5s-3.22,5,0,5Z"/><path class="cls-5" d="M226.19,924.42S82.12,905.21,61,816.85s-17.29-186.34-1.92-219,90.29-63.4,90.29-63.4,55.7-21.13,67.23-55.7S276.14,327,305,305.87s55.71-55.71,180.57-42.26,151.76,84.52,151.76,84.52,15.37,53.79,11.53,103.73S639.2,571,650.73,588.25,737.17,619,737.17,619s59.55,19.21,74.92,57.63S827.45,922.5,712.2,982.05C706.43,984,226.19,924.42,226.19,924.42Z"/><path class="cls-6" d="M149,1673.63S29.09,2185.38,46.77,2581.33H811.33s-40.14-674.37-75.49-883Z"/><path class="cls-7" d="M247.25,2156S17.93,1836.38,7.51,1756.46.56,1263.08.56,1211s-3.48-166.78,45.17-205,187.62-97.29,187.62-97.29,201.52,41.7,288.39,3.48l184.15,45.17s76.44,24.32,97.29,145.93,76.44,698.38,76.44,698.38-7,86.87-135.51,205-236.27,177.2-236.27,177.2L410.55,2090S459,2047,463.64,2021.57s27.7-73.86,39.24-87.71,127-187,127-187l-397-18.47L380.55,2083.9l-108.49,78.48S266.3,2186.62,247.25,2156Z"/><path class="cls-8" d="M327.62,794.4l3.17-68.26s-6.35-19-17.46-33.34-84.14-61.92-38.1-254c0,0,179.39,15.87,290.52,46,0,0-1.59,114.3-28.57,150.82s-42.87,39.69-42.87,39.69S488,691.21,488,700.74s1.59,71.44,1.59,71.44-69.85,46-96.84,41.27S327.62,794.4,327.62,794.4Z"/><path class="cls-8" d="M507.84,2183.83l-85.76-77.11-31.43,26.94-26.94-35.92s-70.35,43.41-82.32,64.36l38.91,77.83s-9,49.39-12,53.88-10.48,22.45,3,19.46,29.94-41.91,29.94-41.91,6,80.83,12,91.3,1.5,31.43,22.45,22.45,37.42-38.91,37.42-38.91,29.93,13.47,44.9-1.5,28.44-71.84,25.45-119.74"/><path class="cls-6" d="M274,774.43S379.12,815.9,399.86,810s89.69-37.8,89.69-37.8,25.85-14,42.14-2.2-3,145.16-3,145.16S342.36,960,233.35,908.67c0,0-3.84-97.21,8-113.51S274,774.43,274,774.43Z"/><path class="cls-9" d="M569.21,741.23a12.81,12.81,0,0,1-10.62-5.06c-6.92-8.89-21.11-32.46-22.15-34.2-2.8-4.25-6-12.81-.51-18.31l.16-.16,32.85-28.86c4.21-4.17,13-9.64,19.6-4.12,6.27,5.23,25.54,38.1,27.72,41.83l.18.31.12.35c.15.45,3.57,11.27-8.95,22.65-10.91,9.92-22.94,20-23.07,20.06l-.2.16C580.9,738.33,575,741.23,569.21,741.23Zm-28.4-52.56c-2.67,2.84,1.46,9.43,1.51,9.5l.08.13c.15.25,14.94,24.87,21.71,33.58,4.6,5.91,15-.9,16.07-1.64,1.28-1.06,12.51-10.47,22.72-19.76,8.05-7.31,7.36-13.6,7.07-15-8-13.73-21.94-36.26-25.91-39.57-2.91-2.42-8.83,2.37-10.26,3.79l-.16.14Z"/><path class="cls-9" d="M201.85,714c-7.2,0-13.7-6.28-16.88-10.84l-.14-.22c-.07-.12-7.38-12.44-13.74-24.25-7.48-13.91-.63-21.63-.33-22l.26-.28.31-.22c5.12-3.57,31-21.45,38.11-23.32,7.59-2,13.5,5.51,15.84,10.33l19.56,35c1.75,3.66,1,7.69-2.19,11.34a21.19,21.19,0,0,1-4.48,3.85c-1.5,1-21.65,14.64-30.65,19.23A12.37,12.37,0,0,1,201.85,714Zm-11.08-14.77c.71.95,7.74,10.12,13.57,7.15,8.76-4.47,29.75-18.69,30-18.83l.14-.09c.05,0,5.28-3.48,4.12-6.16L219,646.37c-.79-1.63-4.43-7.58-7.8-6.69-4.52,1.19-23.94,14-35.45,22-.64,1-3,5.44,1.49,13.71C183.19,686.39,190,697.87,190.77,699.23Z"/><path class="cls-5" d="M742.89,1227.83,732.16,1348l-388.47,8.59-236.09,6.44L99,1245s394.91-8.58,452.86-6.44S742.89,1227.83,742.89,1227.83Z"/><path class="cls-7" d="M4377.19,2032.16l97.34,549.17s-329.36,1.26-694.16,0l-214.59-574.4Z"/><path class="cls-5" d="M3901.24,525.94c-33.51-8.52-71.06-39.34-78.67-74.22-8.48-38.85,26.62-66.67,23.79-103.67-1.55-20.24-22.13-36.51-33.62-52.51-14.3-19.91-25.47-41.32-28-66-5.12-49.17,38.67-38,74.14-31.22,17.42,3.36,33.19,6.17,50.94,6.6,5.4.13,17.3,2.22,22.29.11,11.56-4.91,4.79-5.75,11.11-12.12,16-16.14,20.06-21.36,46.17-13.11,22.73,7.18,47.19,18.42,67.94,30,59.74,33.21,139.22,85.79,152,156.87,10.17,56.5-12.5,128.33-26.59,176.93"/><path class="cls-1" d="M3563.51,2050.15c257,66.63,809.06,25.39,809.06,25.39,208.88-21.19,318.79-22.61,348.39-173.88,20.79-106.27-18.67-211-40.62-314-22.77-106.8-13-209.49-19.05-318.15-4.33-77.31-25.92-150.22-86.2-203.6a655.23,655.23,0,0,0-97.64-71.56c-38.05-22.55-90.44-63-133.43-70.51l-466.4-3.17c-45.06,4.45-111.31,43.56-150.89,65.16-32.3,17.62-67.44,48-77.55,84"/><g class="cls-10"><path class="cls-6" d="M4243.61,1720.85s-51.89,240.47,2.05,389.59l529.86,60.28,123.74-517.17L4721.58,1000l-196.71,15.86c-86,4.3-131.42,127.59-141.16,198.61-8.48,61.81-5.48,120.89,7.12,182,14.73,71.47,64.08,257.39-24.6,299.88-36.49,17.48-122.62,24.58-120.57,27.09"/></g><path class="cls-6" d="M3909.05,1003.32l-51.58-80s-17.79-16,3.55-39.13,151.19-106.72,341.5-88.93,170.75,133.39,170.75,133.39-97.83,39.13-201,55.14S3942.84,1015.77,3909.05,1003.32Z"/><path class="cls-11" d="M3930,994.91s57.35-182.67,61.6-206-2.12-51-29.74-63.72-66.39-33.79-70.09-104.08c-4.25-80.71,8.5-189,29.74-252.76,0,0,65.84-25.49,159.3-27.61s85,12.74,85,12.74l-10.62,152.93s-4.24,27.62,6.38,29.74,34-6.37,34-6.37,31.86,14.87,27.61,48.85-27.61,87.09-78.59,112.58V854.72l17,23.37S4012.82,986.41,3930,994.91Z"/><path class="cls-12" d="M3924.12,1054.19s-38.63,144.88-45.87,210.07c0,0-2.69,10.41,14.6,8.49s15.22-15.8,15.22-15.8,30.28-168.44,45.65-204.94c0,0,2.9-10.26-10-9.8C3927.37,1042.79,3924.12,1054.19,3924.12,1054.19Z"/><path class="cls-12" d="M4001.75,1055.17s-20.42,198.11-19.51,286.33c0,0-1.37,14.22,15.6,10s13.18-22.62,13.18-22.62,9.17-229,19.93-279.4c0,0,1.61-14.06-11.14-12.25C4003.57,1039.57,4001.75,1055.17,4001.75,1055.17Z"/><path class="cls-1" d="M2213.81,1913.27v668.06h642l289-70.2-5.64-699.67Z"/><path class="cls-7" d="M2198.61,1659.35l-40.52-684.8s-10.59-126.66,61.55-172.34,421.41-193.64,421.41-193.64l163.34,36.68s212.36,73.86,341.62,178.5c27.78,22.49,12,1061.63,12,1061.63l-227.49,527.19s-195.82,2.52-212.31-244.87c0,0-28.83-159.21-35.41-285.44-24.27-4.14-52-1.44-69.4,0-53.65,522.47-195.5,551.62-315.31,494.94l-76.23-85Z"/><path class="cls-8" d="M2539.58,654.31s89.46-35.37,95.7-56.17,4.16-47.85,4.16-47.85-29.12-37.45-47.85-62.41-39.52-62.41-52-149.79-12.48-153.94-12.48-153.94l264.21-64.49s68.65,39.52,74.89,83.21,6.24,210.12-18.72,266.29S2810,529.49,2808,560.69s-17.83,61.28-5.8,74.33,70.29,38,70.29,38l-16.64,74.89-133.15,83.22s-33.28,8.32-54.08-2.08-116.5-101.94-116.5-101.94Z"/><path class="cls-6" d="M2539.58,338.09s-44.59-15.69-54.24-59.15c0,0,2.41-19.32,13.28-42.26s7.24-42.26,3.62-53.12-27.77-45.88-2.42-74.86,114.7-97.79,188.35-107.45,106.24,39.84,106.24,39.84l85.72,132.81s6,68.82,1.21,96.59-15.69,33.8-15.69,33.8-9.66-68.82-14.49-79.68-42.26-60.37-60.37-68.82c0,0-10.86-3.62-3.62,13.28s12.07,48.29-9.66,48.29S2545.7,192,2531.21,187.18c0,0,1.21,74.85,2.42,101.42A358.25,358.25,0,0,0,2539.58,338.09Z"/><path class="cls-12" d="M2637.66,396.5s148.36-22.08,169.61-28.33c0,0,.16,4.85-20.89,24.49a111.49,111.49,0,0,1-73.48,29.53C2686.66,422.7,2648.91,414,2637.66,396.5Z"/><path class="cls-2" d="M2552.07,727.12s38.1,812,39.23,1135.34c42.57,28.38,67.4,17.74,92.23,21.29C2726.1,1372.9,2837.16,837.91,2855.8,747.92c0,0-114,78.52-160.29,92.2Z"/><g class="cls-13"><path class="cls-7" d="M2698.51,866.63l-1.65,0c-12.83-.31-20.91-4.05-22.39-4.79l-1.39-.69L2511.9,733.78l18.6-23.54,158.25,125c4.28,1.39,19.77,4.76,41.55-9.34,33.1-21.42,139-92,140-92.71l16.64,25"/></g><path class="cls-2" d="M2924.29,2350.16l-84.62,231.17s660.57,7.57,940.7,0c0,0-61-278.77-65-295s-259.91-259.9-259.91-259.9l-349.24,142.13Z"/><path class="cls-7" d="M2832.29,1388.61c-38.64-17.74-84.63-67.15-85.83-111.94-1.3-48.76,52.32-79.92,74.27-117.76,20.72-35.72,9.67-66.94,21.61-104.31,17-53.28,80.63-66.13,124.25-91.31,58.08-33.52,131.16-84.3,147-154.3,16.16-71.47,3.51-149.61,20.16-221,19.83-85,34.08-143,135-199.29,55.17-30.74,179.13-41.08,220.61,22.38,30.15,46.12,29.31,109.52,25.91,165.29-2.47,40.53-8.28,80.68-14.17,120.42-4,26.71-12.1,68.14-6,94.92,6.74,29.44,32.21,40,54.51,58.84,47.39,40.15,22.65,75.24,23.53,128,1,58.38,66.63,59.23,111.11,68.56,107.84,22.62,103.81,178.62,63.54,255.52-28.09,53.64-78.76,102.39-137.92,114.66"/><path class="cls-12" d="M3202,1182.12l275.44,16.52s-55.08,498.57-118.44,630.78C3359,1829.42,3229.56,1397,3202,1182.12Z"/><path class="cls-6" d="M2958.75,1883.41c-36.65-3-57.06-26.52-68.81-60.34-36.2-104.24-33.36-224.11-42.93-332-7.63-85.9-3.1-179.51,10.65-264.66,5.49-34.06,10.08-64.54,43-79.57,81.65-37.25,170.22-56.62,245.87-107.13,30-20,51.25-48.32,79.1-68.81-3,39.27-17.2,73.32-15.09,113.76,2,39.12,12,80.32,20.16,118.69,18.16,85.59,34.76,200.61,51.39,286.48,23.38,120.82,94.38,299.6,94.38,423.23,0,78-34.51,205.11-71.79,276-34.29,65.23-110.48,117.2-173.19,155.09-49,29.64-202.61,87.59-238.45,85,2.31-16.75,178.05-488.79,180.62-576.86-16.13,5.43-28.7,17.88-46,23C3005.7,1881.8,2981.64,1885.28,2958.75,1883.41Z"/><path class="cls-6" d="M3361.25,966.61c38.86,70.7,128.1,99.22,200.63,121,31,9.31,59.45,17.56,68.67,52.25,11.51,43.28,9.7,90.67,19.56,134.4,26.55,117.71,107.5,213.31,122.13,335.3,7.62,63.47,9.55,188.67-55.9,224.29-47.18,25.68-94.54,15.68-142.92,5.13,19.11,34.48,30.46,71.83,46,107.93,20,46.48,42,94.6,56.48,143,15.93,53.26,34.27,106.93,51.34,160,13.5,42,46.18,105.12,32.86,149.55-56.2-15.56-114.51-29.18-168.82-53.91-74-33.68-138.46-75.86-201.54-126.85-45.47-36.74-70.92-70.93-71.44-133.67-.7-86,5.06-368.16,13-398.67,9.18-35.19,60.65-178.42,66-214.47,36.39-246,14.35-356.52,1.26-389.38"/><path class="cls-14" d="M3227.75,1185.08s-30-117.35-16.47-164.8c13.78-48.23-.08-184.65-5.53-208-8.14-34.89-27.44-174.88-26.38-201.25,24.79-3.36,52.69-9.34,76.77-17.33,14.79-4.92,29-12.44,42.5-19.73,5-2.71,30.22-20.6,35.44-17.25,15.75,10.1-78.9,87.48-31,74.12,115-32.08,140.11-80,151.56-86.29,4.55,14.06-12.76,115.11-21.16,150.5-8.9,37.53-16.52,75.85-34,110.53-5.41,10.7-23.1,32.12-26.67,43.2-1.93,6,41.39,279.06,43.52,349.68C3416.32,1198.48,3271.81,1195.24,3227.75,1185.08Z"/><path class="cls-14" d="M3098.11,1594.67s34.73-62.34,60.65-53.43c32.71,11.24,85,17.38,85,17.38l175.72,40.55-24,120.15-183.23-108.13-128.13,5.7Z"/><path class="cls-14" d="M3364,1590.16s114.14-29.85,151.69-53.88,55.34,5.61,111.48,25.66c25.67,7.22,5.32,83.24-12.35,80.79-73.47-10.21-86-49.34-138-47.38l-79.44,9.93Z"/><path class="cls-15" d="M3454.07,829.32a37.69,37.69,0,1,1,37.69-37.69A37.73,37.73,0,0,1,3454.07,829.32Zm0-67.38a29.69,29.69,0,1,0,29.69,29.69A29.73,29.73,0,0,0,3454.07,761.94Z"/><path class="cls-15" d="M3154.28,829.32A37.69,37.69,0,1,1,3192,791.63,37.73,37.73,0,0,1,3154.28,829.32Zm0-67.38A29.69,29.69,0,1,0,3184,791.63,29.73,29.73,0,0,0,3154.28,761.94Z"/><path class="cls-3" d="M843.33,1562.71s12.32,214.48,27.12,310.63l96.14,22.19,64.1-231.74Z"/><path class="cls-15" d="M826.07,2164.25s-4.93,32.05,19.72,46.84,86.29,34.52,86.29,34.52l2.47-59.17Z"/><path class="cls-12" d="M965.25,1884.81l-289.58-64.17-24.33,319.07,283.21,46.73S953.84,1908.51,965.25,1884.81Z"/><path class="cls-5" d="M1018.68,1565.68S893.54,2082.4,905.35,2581.33c0,0,280.43-1.3,591.91,0l52.15-499.65-180-527.89Z"/><path class="cls-1" d="M1030.21,181.47l211.06,71.35s56.48,17.83,68.37,121.88S1324.51,559,1324.51,559s-6,71.34,80.26,83.23L1491,654.13s74.32-5.94,65.4,86.21-50.54,178.37-80.26,223l-585.63,41.62s-8.92-359.7-23.78-416.19-17.84-110,5.94-151.6,44.59-68.38,44.59-68.38-20.81-107,23.78-154.58S1030.21,181.47,1030.21,181.47Z"/><path class="cls-5" d="M1211.54,811.69l258.63,107s44.59,29.73,59.46,80.26-163.5,564.82-163.5,564.82l-350.79,11.89-22.43,86.51L828.06,1557.84s-35.67-14.86-29.73-56.48,11.89-95.12-5.94-172.42-56.48-199.17,3-279.43,193.23-181.34,214-199.17Z"/><path class="cls-3" d="M1010.3,883.74s26.93-41.62,19.59-75.9-17.14-85.69-17.14-85.69S912.08,655.51,892,520.09s76.85-194,76.85-194L996.25,306s49.41,51.24,69.54,58.56,102.48,32.94,119,56.73,0,166.52-47.58,245.21c0,0-16.47,29.28-3.66,45.74s56.72,100.65,56.72,100.65l42.09,14.64s-16.47,108-129.92,109.8S1010.3,883.74,1010.3,883.74Z"/><g class="cls-16"><path class="cls-12" d="M1191.81,492.22l-8.29-5.6c6.16-9.12,15.07-29,15.07-41.14h10C1208.59,460.42,1198.57,482.2,1191.81,492.22Z"/><path class="cls-12" d="M1134.69,522.58a68.88,68.88,0,0,1,0-137.75l.48,0,30.73,2.95-1,9.95-30.49-2.92a58.88,58.88,0,1,0,49.06,91.79l8.29,5.6A68.87,68.87,0,0,1,1134.69,522.58Z"/></g><path class="cls-12" d="M954.58,533.15a68.88,68.88,0,1,1,68.88-68.88A69,69,0,0,1,954.58,533.15Zm0-127.76a58.88,58.88,0,1,0,58.88,58.88A59,59,0,0,0,954.58,405.39Z"/><path class="cls-12" d="M986.29,560.58s94-10.22,110.41-11.24S1109,568.76,1109,568.76s-3.06,37.83-58.27,39.87-66.45-32.71-66.45-32.71S976.07,564.67,986.29,560.58Z"/><path class="cls-5" d="M834.23,660.9l42.62-49a6.64,6.64,0,0,1,11,1.57L916,674.26a6.64,6.64,0,0,1-7.12,9.33l-70.72-11.78A6.64,6.64,0,0,1,834.23,660.9Z"/><path class="cls-5" d="M1198,625.42l24.29-63.86c1.8-4.73,7.65-5.65,11-1.73l47,54.5c3.75,4.34,1.63,11.17-3.67,11.87l-71.27,9.35C1200.23,636.22,1196.09,630.52,1198,625.42Z"/><rect class="cls-12" x="1021.08" y="440.1" width="50.19" height="10" transform="translate(-31.79 83.73) rotate(-4.51)"/><path class="cls-1" d="M1493.27,2211.35c-25.1-23.7-77.82-37-111.31-48.88-2.08-49.31,15.53-107,23-156.65,7-46.58,1.83-85.33-2.46-131.63-4.64-50,32.37-105.29,40.92-154.35,13.07-75,13.13-149.18,7.29-225.08-8.35-108.56-31.75-211.42-20.9-323.15,3.91-40.18,5.52-89.23,27.8-123.94,31.54-49.15,88.9-82.22,135.49-115.68,82.07-58.94,169.56-119.84,220.57-207.72l214.6,3c74.19,108.44,182.07,146.86,290.17,213.85,46.62,28.9,82.15,73.85,118,114.85,49.29,56.31,98.45,112,146.17,169.64,84.82,102.43,165.89,227.84,180.09,360.75,12.45,116.6-82.53,232.42-175.3,298.7-49.43,35.31-94-18.74-138.67,2.49-32.51,15.44-37.85,47.42-75.41,15.61-21.28-18-56.19-60.91-67-87.78,15.28-23.9,38.55-44.16,59.61-64.23,29.92-28.52,61.36-55.31,91.44-83.63,26.59-25,61.12-49.85,82-78.91-11.67-9.07-33.68-10.19-49.18-15-35.71-11-69.26-28.86-102.46-45.43-29.68-14.82-64.43-35-96.13-41.9-11.65,53.24-9.11,110.61-17.82,165.18-6.93,43.39-12.13,85.48-22,127.73-4.79,20.58-43.61,102.88-42.28,105.68l-631.71,6"/><path class="cls-7" d="M1548.72,1888.65s-96.73,607.58-99.16,692.68c0,0,392.06-9.89,907.06,0l-147-696.41Z"/><path class="cls-11" d="M1467.27,2439.77c-43.59,19.24-72.48-36.31-90-69.51-43.29-82.22,60.34-109.09,54.52-186.74l65.43,27.26Z"/><path class="cls-11" d="M1810.06,592.11s-37.81-71.43-46.55-100.55c-23.4-78-32.4-174.86-13.26-214.88,26.29-55,86-129,86-129s184,12,191.17,14.34,45.41,71.69,45.41,71.69l14.64,213.21L2029.84,735.5l-102,73.86a45.76,45.76,0,0,1-63.56-9.76l-42.34-56.93Z"/><path class="cls-7" d="M1741.47,310.58s1.61,64.39,8,82.1,29,72.44,29,72.44,8,24.14,20.93,8.05,17.7-59.56,64.39-69.22S1962,395.9,1962,395.9s25.76-1.61,40.24,20.93,32.2,59.56,49.91,25.75,25.75-157.75,25.75-157.75l11.27,14.48s8,246.29,1.61,296.2-45.07,132-133.61,128.78-161-40.25-181.9-82.1-45.07-151.32-45.07-264C1730.2,378.19,1727,331.51,1741.47,310.58Z"/><path class="cls-7" d="M1771.17,181.07s-46.7,28.43-42.64,87.31,4.06,71.07,4.06,71.07L1830.05,177,2023,189.19s40.61,60.92,52.79,111.68S2094,311,2094,311s12.86-143.7-106.26-193.61S1775.27,54.63,1735,70.73s-11.27,61.17-11.27,61.17,14.49,14.49,35.41,16.1S1805.7,157.8,1771.17,181.07Z"/><path class="cls-11" d="M1863.57,451.05s73.12-3.75,101.25-.93,15.93,12.18,15.93,12.18-13.12,29.06-29.06,30.94-64.68,1.87-64.68,1.87-15.94-3.75-22.5-13.12-11.25-21.56-11.25-21.56S1854.2,452.93,1863.57,451.05Z"/><path class="cls-11" d="M2306.07,1817.3c-19.37,13.2-35.51,33.37-53.93,48.45-10.8,8.84-23.95,17.62-29.84,30.69-11.84,26.25,2.21,89.48,24.8,107.26,75.81,30.82,114.54,51,146.53-23.06,5-27.26-59.8-17.59-62.3-45.47,8.63-11.62,26.25-28,33.68-40.41"/><path class="cls-6" d="M2090.49,774.9l8.64,5-99.36,170.33c-2.63,4.51-7.92,7.82-14.17,8.88-5.71,1-11-.24-14.6-3.3l-.45-.44L1891,867.59c-12,17.27-50.75,72.85-63.47,90.35-4.94,6.78-10.15,10.21-15.52,10.21a13.19,13.19,0,0,1-1.87-.14c-10.2-1.49-15.2-14.9-15.74-16.42l-.09-.27L1742.11,771.2l9.61-2.78,52.18,180c1.36,3.71,4.71,9.3,7.72,9.73,2,.29,4.84-1.92,7.85-6.05,15-20.63,66.43-94.6,66.94-95.34l3.59-5.17,87.7,96.86c1.32,1,3.67,1.31,6.24.88,3.2-.54,6.09-2.17,7.19-4.06"/><path class="cls-7" d="M1841.12,919.18,1881.85,989l-100.2,725.82a42.54,42.54,0,0,0,7.39,30.34l32.32,39.63,46.13,45.22a16.79,16.79,0,0,0,23.51-.21l84-84a57,57,0,0,0,16.38-46.45L1914.35,984l40.18-65.65-65.18-66.84Z"/></svg>